{
	"asset":{
		"generator":"Khronos glTF Blender I/O v3.5.30",
		"version":"2.0"
	},
	"scene":0,
	"scenes":[
		{
			"name":"Scene",
			"nodes":[
				0
			]
		}
	],
	"nodes":[
		{
			"mesh":0,
			"name":"Stone"
		}
	],
	"animations":[
		{
			"channels":[
				{
					"sampler":0,
					"target":{
						"node":0,
						"path":"translation"
					}
				},
				{
					"sampler":1,
					"target":{
						"node":0,
						"path":"rotation"
					}
				}
			],
			"name":"rotation_BtoW",
			"samplers":[
				{
					"input":8,
					"interpolation":"LINEAR",
					"output":9
				},
				{
					"input":8,
					"interpolation":"LINEAR",
					"output":10
				}
			]
		},
		{
			"channels":[
				{
					"sampler":0,
					"target":{
						"node":0,
						"path":"translation"
					}
				},
				{
					"sampler":1,
					"target":{
						"node":0,
						"path":"rotation"
					}
				}
			],
			"name":"rotation_WtoB",
			"samplers":[
				{
					"input":8,
					"interpolation":"LINEAR",
					"output":11
				},
				{
					"input":8,
					"interpolation":"LINEAR",
					"output":12
				}
			]
		},
		{
			"channels":[
				{
					"sampler":0,
					"target":{
						"node":0,
						"path":"translation"
					}
				}
			],
			"name":"set_B",
			"samplers":[
				{
					"input":13,
					"interpolation":"LINEAR",
					"output":14
				}
			]
		},
		{
			"channels":[
				{
					"sampler":0,
					"target":{
						"node":0,
						"path":"translation"
					}
				}
			],
			"name":"set_W",
			"samplers":[
				{
					"input":13,
					"interpolation":"LINEAR",
					"output":15
				}
			]
		}
	],
	"materials":[
		{
			"doubleSided":true,
			"name":"White_M",
			"pbrMetallicRoughness":{
				"baseColorFactor":[
					0.800000011920929,
					0.800000011920929,
					0.800000011920929,
					1
				],
				"metallicFactor":0,
				"roughnessFactor":0.4000000059604645
			}
		},
		{
			"doubleSided":true,
			"name":"Black_M",
			"pbrMetallicRoughness":{
				"baseColorFactor":[
					0,
					0,
					0,
					1
				],
				"metallicFactor":0,
				"roughnessFactor":0.5
			}
		}
	],
	"meshes":[
		{
			"name":"Cylinder",
			"primitives":[
				{
					"attributes":{
						"POSITION":0,
						"TEXCOORD_0":1,
						"NORMAL":2
					},
					"indices":3,
					"material":0
				},
				{
					"attributes":{
						"POSITION":4,
						"TEXCOORD_0":5,
						"NORMAL":6
					},
					"indices":7,
					"material":1
				}
			]
		}
	],
	"accessors":[
		{
			"bufferView":0,
			"componentType":5126,
			"count":98,
			"max":[
				1,
				0.19999998807907104,
				1
			],
			"min":[
				-1,
				0,
				-1
			],
			"type":"VEC3"
		},
		{
			"bufferView":1,
			"componentType":5126,
			"count":98,
			"type":"VEC2"
		},
		{
			"bufferView":2,
			"componentType":5126,
			"count":98,
			"type":"VEC3"
		},
		{
			"bufferView":3,
			"componentType":5123,
			"count":282,
			"type":"SCALAR"
		},
		{
			"bufferView":4,
			"componentType":5126,
			"count":98,
			"max":[
				1,
				0,
				1
			],
			"min":[
				-1,
				-0.19999998807907104,
				-1
			],
			"type":"VEC3"
		},
		{
			"bufferView":5,
			"componentType":5126,
			"count":98,
			"type":"VEC2"
		},
		{
			"bufferView":6,
			"componentType":5126,
			"count":98,
			"type":"VEC3"
		},
		{
			"bufferView":7,
			"componentType":5123,
			"count":282,
			"type":"SCALAR"
		},
		{
			"bufferView":8,
			"componentType":5126,
			"count":7,
			"max":[
				0.2916666666666667
			],
			"min":[
				0.041666666666666664
			],
			"type":"SCALAR"
		},
		{
			"bufferView":9,
			"componentType":5126,
			"count":7,
			"type":"VEC3"
		},
		{
			"bufferView":10,
			"componentType":5126,
			"count":7,
			"type":"VEC4"
		},
		{
			"bufferView":11,
			"componentType":5126,
			"count":7,
			"type":"VEC3"
		},
		{
			"bufferView":12,
			"componentType":5126,
			"count":7,
			"type":"VEC4"
		},
		{
			"bufferView":13,
			"componentType":5126,
			"count":30,
			"max":[
				1.25
			],
			"min":[
				0.041666666666666664
			],
			"type":"SCALAR"
		},
		{
			"bufferView":14,
			"componentType":5126,
			"count":30,
			"type":"VEC3"
		},
		{
			"bufferView":15,
			"componentType":5126,
			"count":30,
			"type":"VEC3"
		}
	],
	"bufferViews":[
		{
			"buffer":0,
			"byteLength":1176,
			"byteOffset":0,
			"target":34962
		},
		{
			"buffer":0,
			"byteLength":784,
			"byteOffset":1176,
			"target":34962
		},
		{
			"buffer":0,
			"byteLength":1176,
			"byteOffset":1960,
			"target":34962
		},
		{
			"buffer":0,
			"byteLength":564,
			"byteOffset":3136,
			"target":34963
		},
		{
			"buffer":0,
			"byteLength":1176,
			"byteOffset":3700,
			"target":34962
		},
		{
			"buffer":0,
			"byteLength":784,
			"byteOffset":4876,
			"target":34962
		},
		{
			"buffer":0,
			"byteLength":1176,
			"byteOffset":5660,
			"target":34962
		},
		{
			"buffer":0,
			"byteLength":564,
			"byteOffset":6836,
			"target":34963
		},
		{
			"buffer":0,
			"byteLength":28,
			"byteOffset":7400
		},
		{
			"buffer":0,
			"byteLength":84,
			"byteOffset":7428
		},
		{
			"buffer":0,
			"byteLength":112,
			"byteOffset":7512
		},
		{
			"buffer":0,
			"byteLength":84,
			"byteOffset":7624
		},
		{
			"buffer":0,
			"byteLength":112,
			"byteOffset":7708
		},
		{
			"buffer":0,
			"byteLength":120,
			"byteOffset":7820
		},
		{
			"buffer":0,
			"byteLength":360,
			"byteOffset":7940
		},
		{
			"buffer":0,
			"byteLength":360,
			"byteOffset":8300
		}
	],
	"buffers":[
		{
			"byteLength":8660,
			"uri":"Disk.bin"
		}
	]
}
